<?xml version="1.0" encoding="UTF-8"?>
<!DOCTYPE svg PUBLIC "-//W3C//DTD SVG 1.1//EN" "http://www.w3.org/Graphics/SVG/1.1/DTD/svg11.dtd">
<!-- Creator: CorelDRAW -->
<svg xmlns="http://www.w3.org/2000/svg" xml:space="preserve" width="0.479606in" height="0.480795in" version="1.1" style="shape-rendering:geometricPrecision; text-rendering:geometricPrecision; image-rendering:optimizeQuality; fill-rule:evenodd; clip-rule:evenodd"
viewBox="0 0 83.87 84.08"
 xmlns:xlink="http://www.w3.org/1999/xlink"
 xmlns:xodm="http://www.corel.com/coreldraw/odm/2003">
 <defs>
  <style type="text/css">
   <![CDATA[
    .fil0 {fill:#573705}
   ]]>
  </style>
 </defs>
 <g id="Layer_x0020_1">
  <metadata id="CorelCorpID_0Corel-Layer"/>
  <path class="fil0" d="M33.91 14.93c0.19,-6.98 9.73,-7.76 10.44,1.53 -1.76,-0.33 -1.78,-2.55 -4.25,-2.85 -3.18,-0.39 -3.97,1.23 -6.19,1.32zm46.7 -10.57c-0.36,3.2 1.4,6.19 -3.65,10.31 -5.1,4.16 -15.27,3.38 -21.02,-2.58l-5.9 -6.33c-0.7,-0.68 -0.53,-0.39 -0.98,-1.23 4.15,0.97 10.3,10.05 17.56,10.43 8.48,0.44 10.51,-7.12 7.59,-10.97 -1.22,-1.61 -2.27,-2.4 -4.68,-1.45 -0.06,2.12 1.6,3.97 0.88,6.06 -0.62,1.8 -3.68,1.72 -5.7,1.21 -8.45,-2.16 -12,-8.61 -18.5,-9.54 -22.71,-3.24 -27.63,24.65 -9.88,24.52 2.67,-0.02 3.67,-0.85 4.84,-2.21 1.84,-2.12 0.05,-3.83 -0.06,-5.62 1.76,0.27 2.25,2.88 4.65,0.89 4.59,-3.8 -0.4,-11.62 -6.23,-11.78 -8.09,-0.22 -12.7,10.01 -5.64,13.23 2.91,1.32 1.89,0.36 2.32,1.81 -10.98,0.16 -10.25,-15.45 1.68,-17.8 2.02,-0.4 5.3,0.76 6.6,1.62 3.47,2.29 6.43,7.62 4.66,11.34 -1.14,2.4 -2.37,2.81 -5.13,3.62 0.05,3.07 2.18,5.22 5.23,3.53 2.83,-1.57 2.41,-3.03 3.58,-5.74 1.75,0.38 3.88,3.71 8.63,4.41 0.79,0.12 1.26,0.2 1.66,-0.24 0.49,-0.54 0.17,-1.29 0.59,-1.87 4.58,0.29 7.79,1.71 13.6,-2.31 6.51,-4.52 4.75,-10.36 6.56,-10.75 0,0 0.25,-3.62 -3.26,-2.55z"/>
  <path class="fil0" d="M17.76 18.7c-3.31,-0.7 -6.41,-3.57 -10.88,-3.23 -4,0.31 -7.11,4.37 -3.57,7.57 1.62,1.46 3.74,1.39 4.8,-0.64 1.25,-2.41 1.65,-2.05 4.9,-1.92 7.88,0.31 9.28,4.25 10.69,3.26 1.86,-1.31 -1.05,-3.49 -2.12,-6.64 -0.58,-1.71 -1.51,-6.4 -0.78,-8.42 0.42,-0.77 5.37,-1.74 2.56,-5.68 -2.72,-3.81 -10.03,-1.41 -6.87,8.06 0.83,2.48 2.48,4.79 2.97,6.66 -2.13,-1.13 -5.65,-7.82 -7.26,-10.24 -6.88,-10.27 -15.18,-9.07 -9.58,-0.7 2.15,3.22 9.02,7.54 12.59,9.59 1.3,0.75 2.03,1.05 2.57,2.31z"/>
  <path class="fil0" d="M29.11 40.64c1.82,-0.48 2.18,-2.32 2.66,-4.15 2.05,0.43 0.97,0.83 3.08,1.89 3.42,1.71 4.65,0.47 3.32,-3.03 -1.23,-3.23 -1.11,-0.83 -1.53,-3.3 1.56,-0.72 3.31,-1.31 3.81,-3.02 -3.13,-0.81 -6.98,0.72 -11.69,-2.87 -0.81,-0.61 -2.36,-1.85 -3.18,-1.09 -1.11,1.02 1.8,5.5 2.37,6.84 1.1,2.55 1.12,5.66 1.16,8.73z"/>
  <path class="fil0" d="M14.93 34.12c-6.98,0.19 -7.76,9.73 1.53,10.44 -0.33,-1.76 -2.55,-1.78 -2.85,-4.25 -0.39,-3.18 1.23,-3.97 1.32,-6.19zm-10.57 46.7c3.2,-0.36 6.19,1.4 10.31,-3.65 4.16,-5.1 3.38,-15.27 -2.58,-21.02l-6.33 -5.9c-0.68,-0.7 -0.39,-0.53 -1.23,-0.98 0.97,4.15 10.05,10.3 10.43,17.56 0.44,8.48 -7.12,10.51 -10.97,7.59 -1.61,-1.22 -2.4,-2.27 -1.45,-4.68 2.12,-0.06 3.97,1.6 6.06,0.88 1.8,-0.62 1.72,-3.68 1.21,-5.7 -2.16,-8.45 -8.61,-12 -9.54,-18.5 -3.24,-22.71 24.65,-27.63 24.52,-9.88 -0.02,2.67 -0.85,3.67 -2.21,4.84 -2.12,1.84 -3.83,0.05 -5.62,-0.06 0.27,1.76 2.88,2.25 0.89,4.65 -3.8,4.59 -11.62,-0.4 -11.78,-6.23 -0.22,-8.09 10.01,-12.7 13.23,-5.64 1.32,2.91 0.36,1.89 1.81,2.32 0.16,-10.98 -15.45,-10.25 -17.8,1.68 -0.4,2.02 0.76,5.3 1.62,6.6 2.29,3.47 7.62,6.43 11.34,4.66 2.4,-1.14 2.81,-2.37 3.62,-5.13 3.07,0.05 5.22,2.18 3.53,5.23 -1.57,2.83 -3.03,2.41 -5.74,3.58 0.38,1.75 3.71,3.88 4.41,8.63 0.12,0.79 0.2,1.26 -0.24,1.66 -0.54,0.49 -1.29,0.17 -1.87,0.59 0.29,4.58 1.71,7.79 -2.31,13.6 -4.52,6.51 -10.36,4.75 -10.75,6.56 0,0 -3.62,0.25 -2.55,-3.26z"/>
 </g>
</svg>
