<?xml version="1.0" encoding="UTF-8"?>
<!DOCTYPE svg PUBLIC "-//W3C//DTD SVG 1.1//EN" "http://www.w3.org/Graphics/SVG/1.1/DTD/svg11.dtd">
<!-- Creator: CorelDRAW -->
<svg xmlns="http://www.w3.org/2000/svg" xml:space="preserve" width="0.530094in" height="0.309008in" version="1.1" style="shape-rendering:geometricPrecision; text-rendering:geometricPrecision; image-rendering:optimizeQuality; fill-rule:evenodd; clip-rule:evenodd"
viewBox="0 0 252.59 147.24"
 xmlns:xlink="http://www.w3.org/1999/xlink"
 xmlns:xodm="http://www.corel.com/coreldraw/odm/2003">
 <defs>
  <style type="text/css">
   <![CDATA[
    .fil1 {fill:#573705}
    .fil0 {fill:#DCBA7D}
   ]]>
  </style>
 </defs>
 <g id="Layer_x0020_1">
  <metadata id="CorelCorpID_0Corel-Layer"/>
  <path class="fil0" d="M99.58 110.61c5.35,-0.6 4.21,-4.69 21.72,-5.15 12.27,-0.32 26.36,-0.35 38.38,2.49 3.36,0.79 7.02,1.87 10.67,2.8 7.16,1.83 13.62,5.14 22,5.4 11.72,-29.33 17.98,-46.07 31.33,-75.94 1.99,-4.45 10.68,-20.87 10.73,-24.08 -7.09,-4.86 -34.59,-8.79 -47.19,-8.81 -16.48,0.04 -27.04,2.28 -38.26,9.02 -2.94,1.77 -14.21,25.58 -16.83,30.88 -5.2,10.52 -10.02,22 -15.8,31.75 -1.5,2.53 -2.68,5.14 -4.15,7.74 -3.13,5.54 -12.03,19.03 -12.61,23.9z"/>
  <path class="fil1" d="M99.58 110.61c0.58,-4.87 9.48,-18.36 12.61,-23.9 1.47,-2.6 2.65,-5.21 4.15,-7.74 5.78,-9.75 10.6,-21.23 15.8,-31.75 2.62,-5.3 13.89,-29.1 16.83,-30.88 11.22,-6.75 21.78,-8.98 38.26,-9.02 12.59,0.02 40.1,3.95 47.19,8.81 -0.05,3.21 -8.74,19.63 -10.73,24.08 -13.35,29.87 -19.61,46.61 -31.33,75.94 -8.39,-0.25 -14.84,-3.56 -22,-5.4 -3.65,-0.94 -7.32,-2.01 -10.67,-2.8 -12.01,-2.84 -26.1,-2.81 -38.38,-2.49 -17.51,0.46 -16.37,4.55 -21.72,5.15zm-86.23 -8.41c0.39,-3.09 5.46,-7.46 9.79,-13.87 10.68,-15.81 28.14,-36.98 40.25,-53.44 7.74,-10.52 10.32,-18.98 21.92,-24.26 14.23,-6.48 36.32,-6.75 50.28,-0.64 3.44,1.5 5.92,1.53 4.96,6.34 -1.3,6.47 -42.88,89.06 -47.04,92.77 -1.94,-0.51 -6.56,-4.46 -16.66,-8.23 -5.94,-2.21 -13.02,-3.48 -20.63,-3.85 -28.11,-1.37 -33.15,4.73 -42.87,5.19zm-13.36 9.49c6.39,-0.02 20.24,-5.2 37.04,-6.89 10.33,-1.04 29.99,-0.37 35.64,5.18 -5.78,0.15 -10.28,-0.99 -16.48,-1.08 -15.11,-0.24 -36.34,0.23 -49.76,4.77 -1.03,3.06 -1.58,3.21 -1.25,7.07 9.37,1.08 34.27,-3.79 58.74,-1.92 11.73,0.9 16.74,-0.02 23.06,7.5 15.47,18.41 8.54,-14.1 71.75,7.59 7.5,2.58 40.93,13.9 48.36,13.33 3.18,-3.29 4.23,-8.78 6.43,-13.91l17.71 -44.96c3.16,-9.21 24.07,-57.29 21.07,-60.63 -3.43,-3.82 -9.39,3.68 -10.55,6.8 -5.18,13.92 -9.99,29.51 -15.84,43.79 -2.02,4.93 -21.07,52.49 -23.45,55.68 -4.59,-0.26 -13.12,-4.73 -20.01,-5.81 -11.05,-1.74 -28.27,-7.96 -39.94,-10.68 -4.82,-1.12 -20.72,-1.83 -22.35,-3.31 6.74,-3.8 28.08,1.95 40.1,3.43 10.11,1.25 28.79,8.47 38.22,8.57 6.49,-11.39 17,-42.84 22.8,-56.67 4.13,-9.86 7.87,-18.27 12.27,-27.39 2.15,-4.47 3.47,-9.58 5.39,-14.5 5.29,-13.51 7.38,-15.27 0.28,-17.2l-13.52 -3.78c-18.41,-4.15 -47.36,-7.57 -64.92,-3.48 -1.38,0.32 -7.58,2.08 -8.8,2.86 -3.22,2.05 -3.22,5.42 -8.07,1.49 -4.29,-3.47 -9.46,-6.38 -16.26,-7.02 -14.99,-1.42 -30.33,0.26 -42.39,4.7 -11.32,4.16 -17.44,13.86 -24.12,23.41 -6.38,9.12 -13.98,18.6 -20.71,26.88 -8.57,10.55 -23.24,33.06 -30.39,41.13 -2.21,2.5 -3.07,4.1 -5.07,7.02 -3.03,4.41 -4.6,0.79 -4.96,8.05z"/>
  <path class="fil0" d="M13.36 102.2c9.72,-0.46 14.75,-6.56 42.87,-5.19 7.61,0.37 14.7,1.64 20.63,3.85 10.1,3.77 14.73,7.72 16.66,8.23 4.16,-3.71 45.75,-86.3 47.04,-92.77 0.97,-4.81 -1.52,-4.84 -4.96,-6.34 -13.97,-6.11 -36.05,-5.84 -50.28,0.64 -11.6,5.28 -14.18,13.74 -21.92,24.26 -12.11,16.46 -29.56,37.63 -40.25,53.44 -4.33,6.41 -9.41,10.78 -9.79,13.87z"/>
 </g>
</svg>
