<?xml version="1.0" encoding="UTF-8"?>
<!DOCTYPE svg PUBLIC "-//W3C//DTD SVG 1.1//EN" "http://www.w3.org/Graphics/SVG/1.1/DTD/svg11.dtd">
<!-- Creator: CorelDRAW -->
<svg xmlns="http://www.w3.org/2000/svg" xml:space="preserve" width="0.328846in" height="0.358764in" version="1.1" style="shape-rendering:geometricPrecision; text-rendering:geometricPrecision; image-rendering:optimizeQuality; fill-rule:evenodd; clip-rule:evenodd"
viewBox="0 0 80.28 87.59"
 xmlns:xlink="http://www.w3.org/1999/xlink"
 xmlns:xodm="http://www.corel.com/coreldraw/odm/2003">
 <defs>
  <style type="text/css">
   <![CDATA[
    .fil0 {fill:#573705}
   ]]>
  </style>
 </defs>
 <g id="Layer_x0020_1">
  <metadata id="CorelCorpID_0Corel-Layer"/>
  <path class="fil0" d="M19.34 14.06l0.18 0.17c-0.02,-0.02 -0.24,-0.11 -0.18,-0.17zm12.25 24.41c-4.25,0.04 -11.29,-1.61 -4.7,3.25 6.42,4.73 9.06,8.88 19.33,14.07 3.51,1.77 7.87,3.09 8.72,4.85 -2.12,0.03 -5.92,-0.72 -7.33,-0.09 0.9,2.49 14.68,9.35 19.84,10.16 3.03,0.48 5.67,5.2 7.29,7.83 0.91,1.48 1.74,2.97 2.64,4.72 0.7,1.36 1.54,4.06 2.88,4.32 0.25,-4.18 -6.02,-12.55 -8.43,-15.92 -7.76,-10.88 -15.99,-23.67 -25.88,-32.71 -2.99,-2.73 -5.41,-5.53 -8.36,-8.32 -4.49,-4.25 -9.16,-7.84 -13.49,-11.74l-3.27 -2.84c-1.03,-1.07 -0.52,-0.22 -0.96,-1.48 2.09,0.04 6.35,3.43 8.28,4.8 15.37,10.97 21.22,17.1 32.81,32.68l8.28 11.24c0.91,1.37 1.17,3.53 2.31,4.66l0.79 -0.91c0.69,-1.27 0.78,-3.1 0.37,-4.43 -1.23,-4.03 -4.93,-11.73 -6.79,-15.16 -2.6,-4.79 -6.01,-8.97 -8.82,-13.14 -1.11,-1.65 -1.81,-3.61 -3.47,-4.26 -0.45,1.03 0.1,2.52 0.14,4.23 -2.3,-0.91 -1.97,-2.3 -5.21,-5.69 -4.98,-5.21 -11.84,-11.25 -18.23,-14.7 -4.75,-2.55 -9.46,-4.83 -14.48,-7.16 -2.14,-1 -14.35,-6.51 -15.88,-6.74 0.51,8.14 11.71,26.52 20.31,31.65l10.07 4.94c1.52,1.17 0.62,-0.07 1.22,1.89z"/>
 </g>
</svg>
